<svg width="20" height="21" viewBox="0 0 20 21" fill="none" xmlns="http://www.w3.org/2000/svg">
<g clip-path="url(#clip0_910_1975)">
<mask id="mask0_910_1975" style="mask-type:luminance" maskUnits="userSpaceOnUse" x="0" y="0" width="20" height="21">
<path d="M0 0.624025H20V20.624H0V0.624025Z" fill="white"/>
</mask>
<g mask="url(#mask0_910_1975)">
<path d="M10 1.20996C15.1956 1.20996 19.4141 5.4284 19.4141 10.624C19.4141 15.8196 15.1956 20.0381 10 20.0381C4.80437 20.0381 0.585938 15.8196 0.585938 10.624C0.585938 5.4284 4.80437 1.20996 10 1.20996Z" stroke="#666767" stroke-miterlimit="10" stroke-linecap="round" stroke-linejoin="round"/>
<path d="M4.35158 10.624C4.35158 9.93082 4.91361 9.36879 5.60677 9.36879H8.74478V6.23078C8.74478 5.53758 9.30681 4.97559 10 4.97559C10.6932 4.97559 11.2552 5.53758 11.2552 6.23078V9.36879H14.3932C15.0864 9.36879 15.6484 9.93082 15.6484 10.624C15.6484 11.3172 15.0864 11.8793 14.3932 11.8793H11.2552V15.0173C11.2552 15.7105 10.6932 16.2725 10 16.2725C9.30681 16.2725 8.74478 15.7105 8.74478 15.0173V11.8793H5.60677C4.91361 11.8793 4.35158 11.3172 4.35158 10.624Z" stroke="#666767" stroke-miterlimit="10" stroke-linecap="round" stroke-linejoin="round"/>
</g>
</g>
<defs>
<clipPath id="clip0_910_1975">
<rect width="20" height="20" fill="white" transform="translate(0 0.624023)"/>
</clipPath>
</defs>
</svg>
