<svg width="23" height="23" viewBox="0 0 23 23" fill="none" xmlns="http://www.w3.org/2000/svg">
<mask id="mask0_701_10289" style="mask-type:luminance" maskUnits="userSpaceOnUse" x="0" y="0" width="23" height="23">
<path d="M0 1.90735e-06H23V23H0V1.90735e-06Z" fill="white"/>
</mask>
<g mask="url(#mask0_701_10289)">
<path d="M10.7798 22.6631V17.6217" stroke="#666767" stroke-width="0.8" stroke-miterlimit="10" stroke-linecap="round" stroke-linejoin="round"/>
<path d="M12.2202 17.6217V22.6631" stroke="#666767" stroke-width="0.8" stroke-miterlimit="10" stroke-linecap="round" stroke-linejoin="round"/>
<path d="M14.5205 12.356C16.3329 15.4464 18.7019 18.3419 18.7019 18.3419C14.0207 17.9818 11.5 17.2616 11.5 17.2616C11.5 17.2616 8.97928 17.9818 4.29797 18.3419C4.29797 18.3419 6.67856 15.4323 8.49264 12.3335" stroke="#666767" stroke-width="0.8" stroke-miterlimit="10" stroke-linecap="round" stroke-linejoin="round"/>
<path d="M12.5809 11.8469C11.9123 11.6547 11.5 11.5 11.5 11.5C11.5 11.5 8.6192 12.5803 5.7384 12.5803L9.69948 6.81873" stroke="#666767" stroke-width="0.8" stroke-miterlimit="10" stroke-linecap="round" stroke-linejoin="round"/>
<path d="M13.3005 6.81873L17.2616 12.5803C16.1218 12.5803 14.982 12.4112 14.0207 12.2068" stroke="#666767" stroke-width="0.8" stroke-miterlimit="10" stroke-linecap="round" stroke-linejoin="round"/>
<path d="M8.76424 4.81531C9.79448 3.25167 11.0302 1.31559 11.4999 0.336962C12.3642 2.13743 15.8212 7.17883 15.8212 7.17883C14.0206 7.17883 11.4999 6.09851 11.4999 6.09851C11.4999 6.09851 8.97929 7.17883 7.17877 7.17883C7.17877 7.17883 7.47261 6.75037 7.91032 6.0986" stroke="#666767" stroke-width="0.8" stroke-miterlimit="10" stroke-linecap="round" stroke-linejoin="round"/>
<path d="M10.0596 22.6631H12.9404" stroke="#666767" stroke-width="0.8" stroke-miterlimit="10" stroke-linecap="round" stroke-linejoin="round"/>
</g>
</svg>
