<svg width="23" height="23" viewBox="0 0 23 23" fill="none" xmlns="http://www.w3.org/2000/svg">
<g clip-path="url(#clip0_701_10335)">
<path d="M11.4873 22.9826C11.2649 22.9826 11.1167 22.8343 11.1167 22.612V19.4993C11.1167 19.277 11.2649 19.1288 11.4873 19.1288C11.7096 19.1288 11.8578 19.277 11.8578 19.4993V22.612C11.8578 22.8343 11.7096 22.9826 11.4873 22.9826Z" fill="#666767"/>
<path d="M11.4873 17.8318C11.2649 17.8318 11.1167 17.6836 11.1167 17.4613V7.71565C11.1167 7.49333 11.2649 7.34509 11.4873 7.34509C11.7096 7.34509 11.8578 7.49333 11.8578 7.71565V17.4984C11.8578 17.6836 11.7096 17.8318 11.4873 17.8318Z" fill="#666767"/>
<path d="M17.8979 19.8699H1.37105C0.592887 19.8699 0 19.24 0 18.4989C0 17.7578 0.629933 17.1278 1.37105 17.1278H17.0827L20.4177 11.0507C20.603 10.7172 20.8994 10.4948 21.2329 10.3837C21.6034 10.2725 21.974 10.3096 22.2704 10.4949C22.6039 10.6802 22.8263 10.9766 22.9374 11.3101C23.0486 11.6807 23.0115 12.0512 22.8262 12.3476L19.1207 19.1288C18.8613 19.5735 18.4167 19.8699 17.8979 19.8699ZM1.37105 17.8319C1.00049 17.8319 0.741121 18.1283 0.741121 18.4618C0.741121 18.7953 1.03759 19.0917 1.37105 19.0917H17.8979C18.1202 19.0917 18.3425 18.9805 18.4537 18.7582L22.1593 11.977C22.2334 11.8288 22.2705 11.6435 22.1963 11.4953C22.1593 11.3471 22.0481 11.1989 21.8999 11.1248C21.7516 11.0507 21.5663 11.0136 21.4181 11.0877C21.2699 11.1248 21.1216 11.236 21.0476 11.3842L17.6384 17.6466C17.5643 17.7578 17.4531 17.8319 17.3049 17.8319H1.37105Z" fill="#666767"/>
<path d="M0.370511 22.9826C0.296419 22.9826 0.259322 22.9826 0.18523 22.9456C-4.98953e-05 22.8344 -0.0370959 22.6121 0.0369961 22.4268L1.8527 19.3141C1.96389 19.1289 2.18622 19.0918 2.3715 19.1659C2.55678 19.2771 2.59382 19.4994 2.51973 19.6847L0.704025 22.7974C0.629883 22.9086 0.481648 22.9826 0.370511 22.9826Z" fill="#666767"/>
<path d="M19.7507 22.9826C19.6395 22.9826 19.4913 22.9085 19.4171 22.7973L17.6014 19.6847C17.4902 19.4994 17.5644 19.2771 17.7497 19.1659C17.9349 19.0547 18.1573 19.1288 18.2685 19.3141L20.0842 22.4268C20.1954 22.6121 20.1212 22.8344 19.9359 22.9456C19.8988 22.9826 19.8247 22.9826 19.7507 22.9826Z" fill="#666767"/>
<path d="M22.6039 6.04813H0.407589C0.222308 6.04813 0.0740742 5.93694 0.0370282 5.75166C-1.77602e-05 5.56643 0.0740742 5.41819 0.222308 5.3441L11.339 0.0451185C11.4502 0.00807249 11.5613 0.00807249 11.6725 0.0451185L22.7893 5.3441C22.9375 5.41819 23.0116 5.60347 22.9745 5.75171C22.9374 5.93699 22.7892 6.04813 22.6039 6.04813ZM2.03806 5.30701H20.9735L11.4873 0.786239L2.03806 5.30701Z" fill="#666767"/>
<path d="M21.2699 8.08616H1.74161C1.25992 8.08616 0.852259 7.90088 0.518795 7.56737C0.185331 7.23385 0 6.7892 0 6.3075V5.67757C0 5.49229 0.18528 5.30701 0.37056 5.30701H22.6039C22.7892 5.30701 22.9745 5.45524 22.9745 5.67757V6.3075C22.9745 6.7892 22.7892 7.19685 22.4557 7.53032C22.1593 7.90088 21.7146 8.08616 21.2699 8.08616ZM0.741121 6.04808V6.30745C0.741121 6.56682 0.852309 6.82624 1.03759 7.01152C1.22287 7.1968 1.48224 7.30799 1.74166 7.30799H21.2329C21.4923 7.30799 21.7517 7.1968 21.937 7.01152C22.1223 6.82624 22.2335 6.56687 22.2335 6.30745V6.04808H0.741121Z" fill="#666767"/>
</g>
<defs>
<clipPath id="clip0_701_10335">
<rect width="23" height="23" fill="white"/>
</clipPath>
</defs>
</svg>
