<svg width="18" height="18" viewBox="0 0 18 18" fill="none" xmlns="http://www.w3.org/2000/svg">
<path d="M9.74883 0.750221C9.74883 0.551309 9.82785 0.360543 9.9685 0.219891C10.1092 0.0792388 10.2999 0.000221163 10.4988 0.000221163C12.4873 0.00240486 14.3937 0.793282 15.7997 2.19933C17.2058 3.60538 17.9966 5.51177 17.9988 7.50022C17.9988 7.69913 17.9198 7.8899 17.7792 8.03055C17.6385 8.1712 17.4477 8.25022 17.2488 8.25022C17.0499 8.25022 16.8591 8.1712 16.7185 8.03055C16.5778 7.8899 16.4988 7.69913 16.4988 7.50022C16.497 5.90947 15.8643 4.38438 14.7395 3.25955C13.6147 2.13472 12.0896 1.50201 10.4988 1.50022C10.2999 1.50022 10.1092 1.4212 9.9685 1.28055C9.82785 1.1399 9.74883 0.949134 9.74883 0.750221ZM10.4988 4.50022C11.2945 4.50022 12.0575 4.81629 12.6201 5.3789C13.1828 5.94151 13.4988 6.70457 13.4988 7.50022C13.4988 7.69913 13.5778 7.8899 13.7185 8.03055C13.8592 8.1712 14.0499 8.25022 14.2488 8.25022C14.4477 8.25022 14.6385 8.1712 14.7792 8.03055C14.9198 7.8899 14.9988 7.69913 14.9988 7.50022C14.9976 6.30711 14.5231 5.16321 13.6795 4.31956C12.8358 3.4759 11.6919 3.00141 10.4988 3.00022C10.2999 3.00022 10.1092 3.07924 9.9685 3.21989C9.82785 3.36054 9.74883 3.55131 9.74883 3.75022C9.74883 3.94913 9.82785 4.1399 9.9685 4.28055C10.1092 4.4212 10.2999 4.50022 10.4988 4.50022ZM17.3186 12.5545C17.7532 12.9903 17.9973 13.5807 17.9973 14.1962C17.9973 14.8117 17.7532 15.4021 17.3186 15.838L16.6361 16.6247C10.4936 22.5055 -4.45392 7.56172 1.33608 1.39972L2.19858 0.649721C2.63491 0.227229 3.22003 -0.00649203 3.82736 -0.000877705C4.43469 0.00473662 5.01539 0.249235 5.44383 0.679721C5.46708 0.702971 6.85683 2.50822 6.85683 2.50822C7.2692 2.94144 7.49876 3.51692 7.49778 4.11502C7.4968 4.71313 7.26537 5.28785 6.85158 5.71972L5.98308 6.81172C6.46372 7.97956 7.17038 9.04091 8.06246 9.93479C8.95455 10.8287 10.0145 11.5375 11.1813 12.0205L12.2801 11.1467C12.712 10.7333 13.2866 10.5021 13.8846 10.5013C14.4825 10.5004 15.0577 10.73 15.4908 11.1422C15.4908 11.1422 17.2953 12.5312 17.3186 12.5545ZM16.2866 13.645C16.2866 13.645 14.4918 12.2642 14.4686 12.241C14.3141 12.0878 14.1053 12.0018 13.8877 12.0018C13.6701 12.0018 13.4613 12.0878 13.3068 12.241C13.2866 12.262 11.7738 13.4672 11.7738 13.4672C11.6719 13.5484 11.5506 13.6016 11.4218 13.6215C11.2931 13.6415 11.1613 13.6276 11.0396 13.5812C9.52792 13.0184 8.15488 12.1373 7.01346 10.9975C5.87203 9.85779 4.98888 8.48604 4.42383 6.97522C4.37373 6.85181 4.35739 6.71729 4.37651 6.58547C4.39562 6.45366 4.44949 6.32932 4.53258 6.22522C4.53258 6.22522 5.73783 4.71172 5.75808 4.69222C5.91128 4.53771 5.99724 4.32893 5.99724 4.11135C5.99724 3.89376 5.91128 3.68498 5.75808 3.53047C5.73483 3.50797 4.35408 1.71172 4.35408 1.71172C4.19725 1.5711 3.99258 1.49579 3.78202 1.50123C3.57145 1.50667 3.37094 1.59244 3.22158 1.74097L2.35908 2.49097C-1.87242 7.57897 11.0808 19.8137 15.5396 15.6002L16.2228 14.8127C16.3829 14.6644 16.4791 14.4597 16.491 14.2417C16.5029 14.0238 16.4296 13.8098 16.2866 13.645Z" fill="#61CAE6"/>
</svg>
