<svg width="20" height="21" viewBox="0 0 20 21" fill="none" xmlns="http://www.w3.org/2000/svg">
<mask id="mask0_910_1945" style="mask-type:luminance" maskUnits="userSpaceOnUse" x="0" y="1" width="18" height="19">
<path d="M0 1.04069H17.5V19.999H0V1.04069Z" fill="white"/>
</mask>
<g mask="url(#mask0_910_1945)">
<path d="M16.2864 17.2588H4.58008C3.44747 17.2588 2.5293 16.2641 2.5293 15.0371V2.70679" stroke="#666767" stroke-miterlimit="10" stroke-linecap="round" stroke-linejoin="round"/>
<path d="M0.683594 3.33643L1.83842 2.10221C2.23884 1.67424 2.88811 1.67424 3.28853 2.10221L4.44336 3.33643" stroke="#666767" stroke-miterlimit="10" stroke-linecap="round" stroke-linejoin="round"/>
<path d="M15.3467 15.1852L16.5161 16.4363C16.9165 16.8701 16.9165 17.5734 16.5161 18.0072L15.3467 19.2583" stroke="#666767" stroke-miterlimit="10" stroke-linecap="round" stroke-linejoin="round"/>
<path d="M16.1328 3.26204V12.8893C16.1328 13.2973 16.4374 13.6284 16.8139 13.6299H16.8139C17.1924 13.6314 17.5 13.2994 17.5 12.8893V3.26204C17.5 2.03504 16.5818 1.04036 15.4492 1.04036H6.59668C6.21818 1.04036 5.91169 1.37358 5.91309 1.78362C5.91449 2.1916 6.22013 2.52148 6.59668 2.52148H15.4492C15.8268 2.52148 16.1328 2.85303 16.1328 3.26204Z" fill="#666767"/>
<path d="M5.26367 9.70037C5.26367 8.98462 5.79927 8.40439 6.45996 8.40439C7.12065 8.40439 7.65625 8.98462 7.65625 9.70037V13.0005" stroke="#666767" stroke-miterlimit="10" stroke-linecap="round" stroke-linejoin="round"/>
<path d="M5.26367 13.0005V8.37199" stroke="#666767" stroke-miterlimit="10" stroke-linecap="round" stroke-linejoin="round"/>
<path d="M7.65625 9.7005C7.65625 8.98475 8.19185 8.40452 8.85254 8.40452C9.51323 8.40452 10.0488 8.98475 10.0488 9.7005V12.9966" stroke="#666767" stroke-miterlimit="10" stroke-linecap="round" stroke-linejoin="round"/>
<path d="M14.082 9.33496H12.2363C12.2363 9.33496 14.0436 7.55762 14.0436 6.74974C14.0436 6.21654 13.6418 5.78027 13.1506 5.78027" stroke="#666767" stroke-miterlimit="10" stroke-linecap="round" stroke-linejoin="round"/>
<path d="M12.2363 6.74951C12.2363 6.21635 12.6382 5.78004 13.1294 5.78004" stroke="#666767" stroke-miterlimit="10" stroke-linecap="round" stroke-linejoin="round"/>
</g>
</svg>
