<svg width="23" height="23" viewBox="0 0 23 23" fill="none" xmlns="http://www.w3.org/2000/svg">
<path d="M6.89999 3.35413C6.88083 3.35413 6.86166 3.35413 6.84153 3.35413L7.17312 2.02972C7.19001 1.96813 7.19441 1.90379 7.18608 1.84048C7.17775 1.77717 7.15685 1.71616 7.1246 1.66104C7.09236 1.60592 7.04942 1.5578 6.99831 1.51951C6.94721 1.48122 6.88896 1.45354 6.827 1.43808C6.76504 1.42262 6.70062 1.4197 6.63751 1.4295C6.57441 1.43929 6.5139 1.4616 6.45954 1.49512C6.40519 1.52863 6.35808 1.57267 6.32098 1.62465C6.28389 1.67663 6.25755 1.7355 6.24353 1.7978L5.82858 3.46147C4.81438 3.66203 3.87812 4.14682 3.12899 4.8593C2.37986 5.57178 1.84875 6.48257 1.59761 7.48543C1.34646 8.4883 1.38564 9.5419 1.71057 10.5234C2.03549 11.5048 2.63277 12.3736 3.43274 13.0285L1.45187 20.9673C1.43498 21.0289 1.43057 21.0933 1.4389 21.1566C1.44723 21.2199 1.46814 21.2809 1.50038 21.336C1.53263 21.3911 1.57557 21.4393 1.62667 21.4775C1.67778 21.5158 1.73603 21.5435 1.79798 21.559C1.85994 21.5744 1.92437 21.5774 1.98747 21.5676C2.05057 21.5578 2.11108 21.5355 2.16544 21.5019C2.2198 21.4684 2.26691 21.4244 2.30401 21.3724C2.3411 21.3204 2.36743 21.2616 2.38145 21.1993L4.28278 13.5958C4.48336 13.7095 4.69112 13.81 4.90474 13.8968L6.48887 16.5379C6.53141 16.609 6.59165 16.6678 6.6637 16.7087C6.73576 16.7495 6.81717 16.771 6.89999 16.771C6.98282 16.771 7.06423 16.7495 7.13628 16.7087C7.20834 16.6678 7.26858 16.609 7.31112 16.5379L8.89524 13.8958C10.0761 13.4285 11.0572 12.5643 11.6698 11.452C12.2825 10.3396 12.4885 9.04852 12.2523 7.80075C12.0161 6.55297 11.3526 5.42647 10.3758 4.61495C9.39896 3.80343 8.16992 3.3576 6.89999 3.35413ZM8.40937 13.0553C8.3051 13.0928 8.21705 13.1653 8.1602 13.2604L6.89999 15.3601L5.63979 13.2604C5.58294 13.1653 5.49489 13.0928 5.39062 13.0553C4.39022 12.6995 3.54769 12.0017 3.01174 11.0852C2.47579 10.1686 2.28088 9.09209 2.46141 8.04577C2.64195 6.99944 3.18632 6.05053 3.99844 5.36654C4.81056 4.68254 5.83821 4.30744 6.89999 4.30744C7.96178 4.30744 8.98943 4.68254 9.80155 5.36654C10.6137 6.05053 11.158 6.99944 11.3386 8.04577C11.5191 9.09209 11.3242 10.1686 10.7882 11.0852C10.2523 12.0017 9.40976 12.6995 8.40937 13.0553Z" fill="#666767"/>
<path d="M6.9 5.84583C6.31243 5.84583 5.73805 6.02006 5.2495 6.3465C4.76095 6.67294 4.38017 7.13692 4.15531 7.67977C3.93046 8.22262 3.87162 8.81995 3.98625 9.39624C4.10088 9.97252 4.38383 10.5019 4.79931 10.9174C5.21479 11.3328 5.74414 11.6158 6.32042 11.7304C6.89671 11.845 7.49404 11.7862 8.03689 11.5614C8.57974 11.3365 9.04372 10.9557 9.37016 10.4672C9.6966 9.97861 9.87084 9.40423 9.87084 8.81666C9.87084 8.02874 9.55784 7.2731 9.0007 6.71596C8.44356 6.15882 7.68792 5.84583 6.9 5.84583ZM6.9 10.8292C6.50197 10.8292 6.11287 10.7111 5.78192 10.49C5.45096 10.2689 5.19302 9.95455 5.0407 9.58681C4.88837 9.21907 4.84852 8.81443 4.92617 8.42404C5.00383 8.03365 5.1955 7.67506 5.47695 7.39361C5.7584 7.11215 6.117 6.92048 6.50738 6.84283C6.89777 6.76518 7.30242 6.80503 7.67015 6.95735C8.03789 7.10967 8.3522 7.36762 8.57334 7.69857C8.79447 8.02953 8.9125 8.41862 8.9125 8.81666C8.9125 9.35041 8.70047 9.86229 8.32306 10.2397C7.94564 10.6171 7.43375 10.8292 6.9 10.8292Z" fill="#666767"/>
<path d="M21.5481 20.9674L16.7565 1.80073C16.7424 1.73843 16.7161 1.67956 16.679 1.62758C16.6419 1.5756 16.5948 1.53156 16.5404 1.49805C16.4861 1.46453 16.4256 1.44222 16.3625 1.43243C16.2994 1.42263 16.235 1.42555 16.173 1.44101C16.111 1.45647 16.0528 1.48415 16.0017 1.52244C15.9506 1.56073 15.9076 1.60885 15.8754 1.66397C15.8431 1.71909 15.8222 1.7801 15.8139 1.84341C15.8056 1.90672 15.81 1.97106 15.8269 2.03265L20.6185 21.1993C20.6326 21.2616 20.6589 21.3205 20.696 21.3725C20.7331 21.4244 20.7802 21.4685 20.8346 21.502C20.8889 21.5355 20.9494 21.5578 21.0125 21.5676C21.0756 21.5774 21.14 21.5745 21.202 21.559C21.264 21.5436 21.3222 21.5159 21.3733 21.4776C21.4244 21.4393 21.4674 21.3912 21.4996 21.3361C21.5319 21.281 21.5528 21.2199 21.5611 21.1566C21.5694 21.0933 21.565 21.029 21.5481 20.9674Z" fill="#666767"/>
<path d="M11.5 18.6875C11.3729 18.6875 11.251 18.738 11.1612 18.8278C11.0713 18.9177 11.0208 19.0396 11.0208 19.1667V21.0833C11.0208 21.2104 11.0713 21.3323 11.1612 21.4222C11.251 21.512 11.3729 21.5625 11.5 21.5625C11.6271 21.5625 11.7489 21.512 11.8388 21.4222C11.9287 21.3323 11.9791 21.2104 11.9791 21.0833V19.1667C11.9791 19.0396 11.9287 18.9177 11.8388 18.8278C11.7489 18.738 11.6271 18.6875 11.5 18.6875Z" fill="#666767"/>
<path d="M11.5 13.8958C11.3729 13.8958 11.251 13.9462 11.1612 14.0361C11.0713 14.126 11.0208 14.2478 11.0208 14.3749V16.2916C11.0208 16.4187 11.0713 16.5405 11.1612 16.6304C11.251 16.7203 11.3729 16.7708 11.5 16.7708C11.6271 16.7708 11.7489 16.7203 11.8388 16.6304C11.9287 16.5405 11.9791 16.4187 11.9791 16.2916V14.3749C11.9791 14.2478 11.9287 14.126 11.8388 14.0361C11.7489 13.9462 11.6271 13.8958 11.5 13.8958Z" fill="#666767"/>
<path d="M11.5 4.3125C11.6271 4.3125 11.7489 4.26202 11.8388 4.17216C11.9287 4.08229 11.9791 3.96042 11.9791 3.83333V1.91667C11.9791 1.78958 11.9287 1.66771 11.8388 1.57784C11.7489 1.48798 11.6271 1.4375 11.5 1.4375C11.3729 1.4375 11.251 1.48798 11.1612 1.57784C11.0713 1.66771 11.0208 1.78958 11.0208 1.91667V3.83333C11.0208 3.96042 11.0713 4.08229 11.1612 4.17216C11.251 4.26202 11.3729 4.3125 11.5 4.3125Z" fill="#666767"/>
</svg>
