<svg width="208" height="85" viewBox="0 0 208 85" fill="none" xmlns="http://www.w3.org/2000/svg">
<g clip-path="url(#clip0_109_2597)">
<mask id="mask0_109_2597" style="mask-type:luminance" maskUnits="userSpaceOnUse" x="-510" y="-31" width="768" height="1085">
<path d="M257.318 -30.2651H-509.356V1054H257.318V-30.2651Z" fill="white"/>
</mask>
<g mask="url(#mask0_109_2597)">
<path d="M257.318 -30.2651H-509.356V1054H257.318V-30.2651Z" stroke="#666767" stroke-width="1.28788" stroke-miterlimit="10"/>
</g>
<path d="M0.515137 -0.257568L55.1212 84.7424" stroke="#61CAE6" stroke-width="1.82492" stroke-miterlimit="10"/>
<mask id="mask1_109_2597" style="mask-type:luminance" maskUnits="userSpaceOnUse" x="-510" y="-31" width="768" height="1085">
<path d="M257.318 -30.2651H-509.356V1054H257.318V-30.2651Z" fill="white"/>
</mask>
<g mask="url(#mask1_109_2597)">
<path d="M131.235 45.7197V48.4242H130.462V46.4924H123.121V48.4242H122.349V45.7197H122.735C123.25 45.7197 123.637 45.2046 123.894 44.4318C124.152 43.6591 124.28 42.3712 124.28 40.8258L124.409 38.1212H130.076V45.7197H131.235ZM124.667 44.0455C124.538 44.8182 124.28 45.4621 123.894 45.7197H129.046V38.8939H125.053L124.924 40.9546C124.924 42.1136 124.924 43.1439 124.667 44.0455Z" fill="#1E2527"/>
</g>
<mask id="mask2_109_2597" style="mask-type:luminance" maskUnits="userSpaceOnUse" x="-510" y="-31" width="768" height="1085">
<path d="M257.318 -30.2651H-509.356V1054H257.318V-30.2651Z" fill="white"/>
</mask>
<g mask="url(#mask2_109_2597)">
<path d="M138.189 43.5304H132.909C132.909 44.1743 133.167 44.6895 133.682 45.0758C134.197 45.4622 134.712 45.7198 135.356 45.7198C135.742 45.7198 136.129 45.591 136.386 45.4622C136.773 45.3334 137.03 45.0758 137.288 44.8183L137.803 45.3334C137.545 45.7198 137.159 45.9773 136.773 46.1061C136.386 46.2349 135.871 46.3637 135.356 46.3637C134.712 46.3637 134.197 46.2349 133.682 45.9773C133.167 45.7198 132.78 45.3334 132.523 44.8183C132.265 44.3031 132.136 43.788 132.136 43.144C132.136 42.5001 132.265 41.9849 132.523 41.4698C132.78 40.9546 133.167 40.5683 133.682 40.3107C134.197 40.0531 134.712 39.9243 135.227 39.9243C135.742 39.9243 136.386 40.0531 136.773 40.3107C137.288 40.5683 137.545 40.9546 137.803 41.4698C138.06 41.9849 138.189 42.5001 138.189 43.144V43.5304ZM133.553 41.4698C133.167 41.8561 132.909 42.3713 132.909 43.0152H137.417C137.417 42.3713 137.159 41.8561 136.773 41.4698C136.386 41.0834 135.871 40.9546 135.227 40.9546C134.454 40.8258 133.939 41.0834 133.553 41.4698Z" fill="#1E2527"/>
</g>
<mask id="mask3_109_2597" style="mask-type:luminance" maskUnits="userSpaceOnUse" x="-510" y="-31" width="768" height="1085">
<path d="M257.318 -30.2651H-509.356V1054H257.318V-30.2651Z" fill="white"/>
</mask>
<g mask="url(#mask3_109_2597)">
<path d="M145.273 44.6893C145.273 45.2045 145.015 45.7196 144.629 45.9772C144.242 46.2348 143.598 46.3636 142.826 46.3636H139.992V40.053H142.826C143.598 40.053 144.114 40.1818 144.5 40.4393C144.886 40.6969 145.144 41.0833 145.144 41.5984C145.144 41.9848 145.015 42.2424 144.886 42.5C144.758 42.7575 144.5 42.8863 144.114 43.0151C144.886 43.4015 145.273 43.9166 145.273 44.6893ZM140.894 43.0151H142.826C143.341 43.0151 143.727 42.8863 143.985 42.7575C144.242 42.6287 144.371 42.3712 144.371 41.9848C144.371 41.5984 144.242 41.3409 143.985 41.2121C143.727 41.0833 143.341 40.9545 142.826 40.9545H140.894V43.0151ZM144.114 45.4621C144.371 45.3333 144.5 45.0757 144.5 44.6893C144.5 44.303 144.371 44.0454 144.114 43.9166C143.856 43.7878 143.47 43.659 142.955 43.659H140.894V45.8484H142.826C143.341 45.7196 143.727 45.7196 144.114 45.4621Z" fill="#1E2527"/>
</g>
<mask id="mask4_109_2597" style="mask-type:luminance" maskUnits="userSpaceOnUse" x="-510" y="-31" width="768" height="1085">
<path d="M257.318 -30.2651H-509.356V1054H257.318V-30.2651Z" fill="white"/>
</mask>
<g mask="url(#mask4_109_2597)">
<path d="M152.742 43.5304H147.462C147.462 44.1743 147.72 44.6895 148.235 45.0758C148.75 45.4622 149.265 45.7198 149.909 45.7198C150.296 45.7198 150.682 45.591 150.939 45.4622C151.326 45.3334 151.583 45.0758 151.841 44.8183L152.356 45.3334C152.099 45.7198 151.712 45.9773 151.326 46.1061C150.939 46.2349 150.424 46.3637 149.909 46.3637C149.265 46.3637 148.75 46.2349 148.235 45.9773C147.72 45.7198 147.333 45.3334 147.076 44.8183C146.818 44.3031 146.689 43.788 146.689 43.144C146.689 42.5001 146.818 41.9849 147.076 41.4698C147.333 40.9546 147.72 40.5683 148.235 40.3107C148.75 40.0531 149.265 39.9243 149.78 39.9243C150.424 39.9243 150.939 40.0531 151.326 40.3107C151.841 40.5683 152.099 40.9546 152.356 41.4698C152.614 41.9849 152.742 42.5001 152.742 43.144V43.5304ZM148.235 41.4698C147.849 41.8561 147.591 42.3713 147.591 43.0152H152.099C152.099 42.3713 151.841 41.8561 151.455 41.4698C151.068 41.0834 150.553 40.9546 149.909 40.9546C149.136 40.8258 148.621 41.0834 148.235 41.4698Z" fill="#1E2527"/>
</g>
<mask id="mask5_109_2597" style="mask-type:luminance" maskUnits="userSpaceOnUse" x="-510" y="-31" width="768" height="1085">
<path d="M257.318 -30.2651H-509.356V1054H257.318V-30.2651Z" fill="white"/>
</mask>
<g mask="url(#mask5_109_2597)">
<path d="M159.697 40.1819V46.4925H158.795V40.9546H155.833L155.705 42.5001C155.576 43.788 155.447 44.8183 155.189 45.4622C154.932 46.1061 154.545 46.4925 153.902 46.4925C153.773 46.4925 153.515 46.4925 153.258 46.3637V45.591C153.386 45.591 153.515 45.591 153.515 45.591C153.902 45.591 154.03 45.4622 154.288 45.0758C154.417 44.8183 154.545 44.4319 154.674 43.9167C154.674 43.5304 154.803 42.8864 154.803 42.1137L154.932 39.9243H159.697V40.1819Z" fill="#1E2527"/>
</g>
<mask id="mask6_109_2597" style="mask-type:luminance" maskUnits="userSpaceOnUse" x="-510" y="-31" width="768" height="1085">
<path d="M257.318 -30.2651H-509.356V1054H257.318V-30.2651Z" fill="white"/>
</mask>
<g mask="url(#mask6_109_2597)">
<path d="M163.045 46.106C162.53 45.8484 162.144 45.4621 161.886 44.9469C161.629 44.4318 161.5 43.9166 161.5 43.2727C161.5 42.6287 161.629 42.1136 161.886 41.5984C162.144 41.0833 162.53 40.6969 163.045 40.4393C163.561 40.1818 164.076 40.053 164.72 40.053C165.364 40.053 165.879 40.1818 166.394 40.4393C166.909 40.6969 167.295 41.0833 167.553 41.5984C167.811 42.1136 167.939 42.6287 167.939 43.2727C167.939 43.9166 167.811 44.4318 167.553 44.9469C167.295 45.4621 166.909 45.8484 166.394 46.106C165.879 46.3636 165.364 46.4924 164.72 46.4924C164.076 46.4924 163.561 46.3636 163.045 46.106ZM165.879 45.4621C166.265 45.2045 166.523 44.9469 166.652 44.5606C166.909 44.1742 166.909 43.7878 166.909 43.2727C166.909 42.7575 166.78 42.3712 166.652 41.9848C166.394 41.5984 166.136 41.3409 165.879 41.0833C165.492 40.8257 165.106 40.8257 164.72 40.8257C164.333 40.8257 163.818 40.9545 163.561 41.0833C163.174 41.3409 162.917 41.5984 162.788 41.9848C162.53 42.3712 162.53 42.7575 162.53 43.2727C162.53 43.7878 162.659 44.1742 162.788 44.5606C163.045 44.9469 163.303 45.2045 163.561 45.4621C163.947 45.7196 164.333 45.7196 164.72 45.7196C165.106 45.7196 165.492 45.7196 165.879 45.4621Z" fill="#1E2527"/>
</g>
<mask id="mask7_109_2597" style="mask-type:luminance" maskUnits="userSpaceOnUse" x="-510" y="-31" width="768" height="1085">
<path d="M257.318 -30.2651H-509.356V1054H257.318V-30.2651Z" fill="white"/>
</mask>
<g mask="url(#mask7_109_2597)">
<path d="M175.28 40.1819V46.4925H174.508V40.9546H170.515V46.4925H169.742V40.1819H175.28Z" fill="#1E2527"/>
</g>
<mask id="mask8_109_2597" style="mask-type:luminance" maskUnits="userSpaceOnUse" x="-510" y="-31" width="768" height="1085">
<path d="M257.318 -30.2651H-509.356V1054H257.318V-30.2651Z" fill="white"/>
</mask>
<g mask="url(#mask8_109_2597)">
<path d="M184.811 40.1819V46.4925H184.038V41.4698L181.462 45.7198H181.076L178.5 41.4698V46.4925H177.727V40.1819H178.629L181.205 44.6895L184.038 40.1819H184.811Z" fill="#1E2527"/>
</g>
<mask id="mask9_109_2597" style="mask-type:luminance" maskUnits="userSpaceOnUse" x="-510" y="-31" width="768" height="1085">
<path d="M257.318 -30.2651H-509.356V1054H257.318V-30.2651Z" fill="white"/>
</mask>
<g mask="url(#mask9_109_2597)">
<path d="M192.667 43.5304H187.386C187.386 44.1743 187.644 44.6895 188.159 45.0758C188.674 45.4622 189.19 45.7198 189.833 45.7198C190.22 45.7198 190.606 45.591 190.864 45.4622C191.25 45.3334 191.508 45.0758 191.765 44.8183L192.28 45.3334C192.023 45.7198 191.636 45.9773 191.25 46.1061C190.864 46.2349 190.349 46.3637 189.833 46.3637C189.19 46.3637 188.674 46.2349 188.159 45.9773C187.644 45.7198 187.258 45.3334 187 44.8183C186.743 44.3031 186.614 43.788 186.614 43.144C186.614 42.5001 186.743 41.9849 187 41.4698C187.258 40.9546 187.644 40.5683 188.159 40.3107C188.674 40.0531 189.189 39.9243 189.705 39.9243C190.349 39.9243 190.864 40.0531 191.25 40.3107C191.765 40.5683 192.023 40.9546 192.28 41.4698C192.538 41.9849 192.667 42.5001 192.667 43.144V43.5304ZM188.159 41.4698C187.773 41.8561 187.515 42.3713 187.515 43.0152H192.023C192.023 42.3713 191.765 41.8561 191.379 41.4698C190.992 41.0834 190.477 40.9546 189.833 40.9546C189.061 40.8258 188.546 41.0834 188.159 41.4698Z" fill="#1E2527"/>
</g>
<mask id="mask10_109_2597" style="mask-type:luminance" maskUnits="userSpaceOnUse" x="-510" y="-31" width="768" height="1085">
<path d="M257.318 -30.2651H-509.356V1054H257.318V-30.2651Z" fill="white"/>
</mask>
<g mask="url(#mask10_109_2597)">
<path d="M194.598 40.1819H195.371V42.8864H199.364V40.1819H200.265V46.4925H199.364V43.6592H195.371V46.4925H194.598V40.1819Z" fill="#1E2527"/>
</g>
<mask id="mask11_109_2597" style="mask-type:luminance" maskUnits="userSpaceOnUse" x="-510" y="-31" width="768" height="1085">
<path d="M257.318 -30.2651H-509.356V1054H257.318V-30.2651Z" fill="white"/>
</mask>
<g mask="url(#mask11_109_2597)">
<path d="M207.091 40.9546H204.644V46.4925H203.871V40.9546H201.424V40.1819H207.091V40.9546Z" fill="#1E2527"/>
</g>
<mask id="mask12_109_2597" style="mask-type:luminance" maskUnits="userSpaceOnUse" x="-510" y="-31" width="768" height="1085">
<path d="M257.318 -30.2651H-509.356V1054H257.318V-30.2651Z" fill="white"/>
</mask>
<g mask="url(#mask12_109_2597)">
<path d="M73.0227 33.2273V48.8106H70.8333V35.1591H61.6894V48.8106H59.5V33.2273H73.0227Z" fill="#1E2527"/>
</g>
<mask id="mask13_109_2597" style="mask-type:luminance" maskUnits="userSpaceOnUse" x="-510" y="-31" width="768" height="1085">
<path d="M257.318 -30.2651H-509.356V1054H257.318V-30.2651Z" fill="white"/>
</mask>
<g mask="url(#mask13_109_2597)">
<path d="M103.674 48.0379C102.386 47.394 101.356 46.3637 100.712 45.2046C99.9395 44.0455 99.6819 42.6288 99.6819 41.0834C99.6819 39.5379 100.068 38.25 100.712 36.9621C101.485 35.8031 102.386 34.7728 103.674 34.1288C104.962 33.4849 106.379 33.0985 107.924 33.0985C109.47 33.0985 110.886 33.4849 112.174 34.1288C113.462 34.7728 114.364 35.8031 115.136 36.9621C115.909 38.1212 116.167 39.5379 116.167 41.0834C116.167 42.6288 115.78 43.9167 115.136 45.2046C114.364 46.3637 113.462 47.394 112.174 48.0379C110.886 48.6818 109.47 49.0682 107.924 49.0682C106.379 49.0682 104.962 48.6818 103.674 48.0379ZM111.015 46.2349C111.917 45.7197 112.689 44.947 113.205 44.0455C113.72 43.144 113.977 42.1137 113.977 40.9546C113.977 39.7955 113.72 38.7652 113.205 37.8637C112.689 36.9621 111.917 36.1894 111.015 35.6743C110.114 35.1591 109.083 34.9015 107.924 34.9015C106.765 34.9015 105.735 35.1591 104.833 35.6743C103.932 36.1894 103.159 36.9621 102.644 37.8637C102.129 38.7652 101.871 39.7955 101.871 40.9546C101.871 42.1137 102.129 43.144 102.644 44.0455C103.159 44.947 103.932 45.7197 104.833 46.2349C105.735 46.75 106.765 47.0076 107.924 47.0076C109.083 47.0076 110.114 46.75 111.015 46.2349Z" fill="#1E2527"/>
</g>
<path d="M91.0529 34.7727C89.8938 33.8712 88.3484 33.3561 86.2878 33.3561H80.106L81.265 35.2879H82.4241H86.159C87.5756 35.2879 88.6059 35.5455 89.3787 36.1894C90.1514 36.8333 90.5377 37.6061 90.5377 38.7652C90.5377 39.9243 90.1514 40.697 89.3787 41.3409C88.6059 41.9849 87.5756 42.2424 86.159 42.2424H85.3862L86.0302 44.1743H86.2878C88.3484 44.1743 89.8938 43.6591 91.0529 42.7576C92.212 41.8561 92.7272 40.4394 92.7272 38.7652C92.8559 36.9621 92.212 35.6743 91.0529 34.7727Z" fill="#1E2527"/>
<path d="M85.1085 39.6767L83.5708 40.6183L91.3722 53.3586L92.9098 52.417L85.1085 39.6767Z" fill="#61CAE6"/>
</g>
<defs>
<clipPath id="clip0_109_2597">
<rect width="207.348" height="85" fill="white"/>
</clipPath>
</defs>
</svg>
