<svg width="46" height="46" viewBox="0 0 46 46" fill="none" xmlns="http://www.w3.org/2000/svg">
<rect width="46" height="46" rx="23" fill="#339FED"/>
<g clip-path="url(#clip0_1102_1382)">
<path d="M22.9858 35.98C22.7345 35.98 22.5669 35.8124 22.5669 35.5611V32.0424C22.5669 31.7911 22.7345 31.6235 22.9858 31.6235C23.2371 31.6235 23.4047 31.7911 23.4047 32.0424V35.5611C23.4047 35.8124 23.2371 35.98 22.9858 35.98Z" fill="white"/>
<path d="M22.9858 30.1578C22.7345 30.1578 22.5669 29.9902 22.5669 29.7389V18.7221C22.5669 18.4708 22.7345 18.3032 22.9858 18.3032C23.2371 18.3032 23.4047 18.4708 23.4047 18.7221V29.7808C23.4047 29.9903 23.2371 30.1578 22.9858 30.1578Z" fill="white"/>
<path d="M30.2324 32.4617H11.5499C10.6702 32.4617 10 31.7496 10 30.9119C10 30.0741 10.7121 29.362 11.5499 29.362H29.3109L33.0808 22.4921C33.2903 22.1151 33.6254 21.8638 34.0024 21.7382C34.4213 21.6125 34.8402 21.6544 35.1753 21.8639C35.5523 22.0733 35.8036 22.4084 35.9292 22.7854C36.0549 23.2043 36.013 23.6232 35.8035 23.9583L31.6147 31.624C31.3215 32.1266 30.8189 32.4617 30.2324 32.4617ZM11.5499 30.1578C11.131 30.1578 10.8378 30.493 10.8378 30.8699C10.8378 31.2469 11.1729 31.582 11.5499 31.582H30.2324C30.4837 31.582 30.735 31.4563 30.8607 31.205L35.0496 23.5393C35.1334 23.3718 35.1753 23.1623 35.0915 22.9948C35.0496 22.8272 34.9239 22.6597 34.7564 22.5759C34.5888 22.4921 34.3794 22.4502 34.2118 22.534C34.0442 22.5759 33.8766 22.7016 33.7929 22.8692L29.9391 29.9484C29.8553 30.0741 29.7296 30.1578 29.5621 30.1578H11.5499Z" fill="white"/>
<path d="M10.4189 35.9805C10.3352 35.9805 10.2932 35.9805 10.2095 35.9386C10 35.8129 9.95815 35.5616 10.0419 35.3522L12.0944 31.8335C12.2201 31.6241 12.4715 31.5822 12.6809 31.6659C12.8904 31.7916 12.9322 32.0429 12.8485 32.2524L10.7959 35.7711C10.7121 35.8968 10.5446 35.9805 10.4189 35.9805Z" fill="white"/>
<path d="M32.327 35.9806C32.2013 35.9806 32.0338 35.8968 31.95 35.7711L29.8974 32.2524C29.7717 32.043 29.8556 31.7917 30.065 31.666C30.2744 31.5403 30.5258 31.6241 30.6515 31.8336L32.704 35.3522C32.8297 35.5617 32.7459 35.813 32.5364 35.9387C32.4945 35.9806 32.4107 35.9806 32.327 35.9806Z" fill="white"/>
<path d="M35.5523 16.8369H10.4608C10.2514 16.8369 10.0838 16.7113 10.0419 16.5018C10 16.2924 10.0838 16.1249 10.2514 16.0411L22.8181 10.0509C22.9438 10.0091 23.0694 10.0091 23.1951 10.0509L35.7618 16.0411C35.9294 16.1249 36.0131 16.3343 35.9713 16.5019C35.9293 16.7113 35.7618 16.8369 35.5523 16.8369ZM12.304 15.9992H33.7092L22.9857 10.8887L12.304 15.9992Z" fill="white"/>
<path d="M34.0443 19.1407H11.9688C11.4243 19.1407 10.9634 18.9312 10.5865 18.5542C10.2095 18.1772 10 17.6745 10 17.13V16.4179C10 16.2085 10.2094 15.999 10.4189 15.999H35.5523C35.7617 15.999 35.9712 16.1666 35.9712 16.4179V17.13C35.9712 17.6745 35.7617 18.1354 35.3847 18.5123C35.0496 18.9312 34.547 19.1407 34.0443 19.1407ZM10.8378 16.8368V17.13C10.8378 17.4232 10.9635 17.7164 11.1729 17.9259C11.3824 18.1353 11.6756 18.261 11.9688 18.261H34.0024C34.2956 18.261 34.5889 18.1353 34.7984 17.9259C35.0078 17.7164 35.1335 17.4232 35.1335 17.13V16.8368H10.8378Z" fill="white"/>
</g>
<defs>
<clipPath id="clip0_1102_1382">
<rect width="26" height="26" fill="white" transform="translate(10 10)"/>
</clipPath>
</defs>
</svg>
