<svg width="46" height="46" viewBox="0 0 46 46" fill="none" xmlns="http://www.w3.org/2000/svg">
<rect width="46" height="46" rx="23" fill="#E76100"/>
<mask id="mask0_1102_1443" style="mask-type:luminance" maskUnits="userSpaceOnUse" x="10" y="10" width="26" height="26">
<path d="M10 10H36V36H10V10Z" fill="white"/>
</mask>
<g mask="url(#mask0_1102_1443)">
<path d="M19.9531 24.0156C19.9531 23.4547 19.4984 23 18.9375 23C18.3766 23 17.9219 23.4547 17.9219 24.0156C17.9219 24.5766 18.3766 25.0312 18.9375 25.0312C19.4984 25.0312 19.9531 24.5766 19.9531 24.0156Z" fill="white"/>
<path d="M28.0781 24.0156C28.0781 23.4547 27.6234 23 27.0625 23C26.5016 23 26.0469 23.4547 26.0469 24.0156C26.0469 24.5766 26.5016 25.0312 27.0625 25.0312C27.6234 25.0312 28.0781 24.5766 28.0781 24.0156Z" fill="white"/>
<path d="M15.3186 17.6148C14.5264 18.5897 13.9114 19.7145 13.5224 20.94C13.3327 21.5379 12.8124 21.9327 12.2336 22.1744C11.4364 22.5073 11.0156 23.2352 11.0156 24.0156C11.0156 24.788 11.4313 25.5242 12.2371 25.8588C12.8149 26.0987 13.3331 26.4946 13.5223 27.0909C14.8252 31.1966 18.463 34.1719 23 34.1719C27.5368 34.1719 31.1745 31.1968 32.4775 27.0912C32.6673 26.4933 33.1875 26.0986 33.7663 25.8568C34.5635 25.5239 34.9844 24.796 34.9844 24.0156C34.9844 23.244 34.5694 22.5068 33.7626 22.1722C33.1848 21.9325 32.6668 21.5364 32.4776 20.9402C32.0886 19.7147 31.4736 18.5898 30.6813 17.6148" stroke="white" stroke-miterlimit="10" stroke-linecap="round" stroke-linejoin="round"/>
<path d="M27.0625 15.8905C27.0625 17.201 25.6764 19.0597 24.5235 20.379C23.7174 21.3014 22.2826 21.3014 21.4765 20.379C20.3236 19.0597 18.9375 17.201 18.9375 15.8905C18.9375 13.6468 20.7563 11.828 23 11.828C25.2437 11.828 27.0625 13.6468 27.0625 15.8905Z" stroke="white" stroke-miterlimit="10" stroke-linecap="round" stroke-linejoin="round"/>
<path d="M25.0312 28.0781C25.0312 29.1999 24.1219 30.1094 23 30.1094C21.8781 30.1094 20.9688 29.1999 20.9688 28.0781" stroke="white" stroke-miterlimit="10" stroke-linecap="round" stroke-linejoin="round"/>
</g>
</svg>
