<svg width="47" height="47" viewBox="0 0 47 47" fill="none" xmlns="http://www.w3.org/2000/svg">
<rect x="0.0776367" y="0.988281" width="46" height="46" rx="23" fill="#E4C20C"/>
<path d="M31.6306 18.1716H30.8042V17.7661C30.8042 17.5416 30.6225 17.3599 30.3979 17.3599H15.757C15.5325 17.3599 15.3508 17.5416 15.3508 17.7661V18.1716H14.5244C14.2999 18.1716 14.1182 18.3533 14.1182 18.5778C14.1182 18.8024 14.2999 18.9841 14.5244 18.9841H15.3508V19.4352C15.3508 19.6597 15.5325 19.8414 15.757 19.8414H16.0387C16.0212 22.3151 17.2968 24.5092 19.2272 25.7745L17.1908 34.8683C17.0835 35.381 17.8531 35.5735 17.9835 35.046C17.9835 35.046 19.0675 30.2051 19.0675 30.2051H27.0874L28.1715 35.046C28.2135 35.2349 28.3813 35.3634 28.5674 35.3634C28.8227 35.3647 29.0244 35.1197 28.9641 34.8683C28.9641 34.8683 26.9278 25.7745 26.9278 25.7745C28.8453 24.5157 30.1162 22.3495 30.1162 19.889V19.8414H30.3979C30.6225 19.8414 30.8042 19.6597 30.8042 19.4352V18.9841H31.6306C32.1573 18.98 32.1697 18.1792 31.6306 18.1716ZM16.1633 18.1724H29.9917V19.0289H16.1633V18.1724ZM26.9055 29.3926H19.2495L19.9658 26.1935C20.9055 26.6593 21.9595 26.9282 23.0775 26.9282C24.1954 26.9282 25.2494 26.6593 26.1891 26.1935L26.9055 29.3926ZM29.3037 19.889C28.952 28.1819 17.1381 28.1328 16.8512 19.8414C16.8612 19.8876 29.3919 19.754 29.3037 19.889Z" fill="white"/>
<path d="M17.7372 15.6271C17.4682 16.0829 18.159 16.4994 18.4355 16.0428C18.4549 16.0103 18.904 15.2367 18.539 14.1691C18.3307 13.5581 18.4676 13.286 18.4823 13.2598C18.788 12.8435 18.1678 12.3603 17.8396 12.7631C17.7642 12.8555 17.4079 13.3697 17.7702 14.4317C18.009 15.1304 17.746 15.6112 17.7372 15.6271Z" fill="white"/>
<path d="M21.0241 15.6272C20.7551 16.0827 21.4459 16.4996 21.7224 16.0429C21.7414 16.0108 22.1913 15.2368 21.8263 14.1692C21.6176 13.5586 21.7545 13.2865 21.7692 13.2599C22.0759 12.8435 21.455 12.3606 21.1268 12.7628C21.0515 12.8552 20.6948 13.3698 21.0574 14.4318C21.2963 15.1305 21.0332 15.6113 21.0241 15.6272Z" fill="white"/>
<path d="M24.3112 15.6272C24.0422 16.083 24.733 16.4995 25.0095 16.0429C25.0289 16.0104 25.4776 15.2368 25.1134 14.1692C24.9047 13.5582 25.042 13.2861 25.0563 13.2599C25.363 12.8435 24.7421 12.3606 24.414 12.7628C24.3386 12.8552 23.9819 13.3698 24.3445 14.4318C24.583 15.1305 24.3199 15.6113 24.3112 15.6272Z" fill="white"/>
<path d="M27.5986 15.6271C27.3295 16.0829 28.0204 16.4995 28.2968 16.0429C28.3162 16.0104 28.7653 15.2367 28.4003 14.1692C28.1921 13.5582 28.3289 13.286 28.3436 13.2599C28.6495 12.8438 28.0288 12.3602 27.7009 12.7632C27.6255 12.8556 27.2693 13.3697 27.6315 14.4318C27.8703 15.1304 27.6073 15.6113 27.5986 15.6271Z" fill="white"/>
</svg>
