<svg width="46" height="47" viewBox="0 0 46 47" fill="none" xmlns="http://www.w3.org/2000/svg">
<rect y="0.240723" width="46" height="46" rx="23" fill="#1C882D"/>
<g clip-path="url(#clip0_1102_1437)">
<g clip-path="url(#clip1_1102_1437)">
<path d="M23.5352 21.2911C23.7646 21.6735 23.9941 22.0558 24.2235 22.4382C24.4146 22.7823 24.7588 23.05 25.1411 23.1264C28.697 23.8529 29.0029 24.0058 29.7676 23.9676L31.4499 35.247C31.4882 35.4382 31.6794 35.5911 31.8705 35.5529C32.0617 35.5147 32.2146 35.3235 32.1764 35.1323L29.8823 19.8C29.7676 19.1117 29.1558 18.6529 28.4294 18.7294C27.7411 18.8441 27.2823 19.4941 27.397 20.1823L27.5499 21.1382C27.0911 21.0235 26.5941 20.947 26.1352 20.8323C26.097 20.8323 26.0588 20.7941 26.0205 20.7558L24.0323 17.3529C23.7264 16.8558 23.1529 16.5117 22.5411 16.5117H21.0117C20.0176 16.5117 19.1764 17.1235 18.8323 18.0794L18.2588 17.8882C16.8058 17.4676 15.3146 18.4235 15.1235 19.9529L14.7793 23.1264L14.397 26.1852C14.3588 26.3764 14.5117 26.5676 14.7411 26.6058C14.9323 26.6441 15.1235 26.4911 15.1617 26.2617L15.3529 24.7323C15.6205 24.9235 15.9646 25.0382 16.2705 25.0382H17.6088C17.3411 26.5676 17.1499 27.6764 17.0352 28.3264C17.0352 28.4411 16.9588 28.5558 16.9205 28.6323C16.3088 29.4352 15.4676 30.6588 14.1294 32.4941C13.5941 33.2588 13.7852 34.3294 14.6264 34.7882C15.3146 35.1705 16.1941 35.0176 16.6911 34.3676C17.1117 33.8323 17.1499 33.7558 17.6088 33.1058C17.7235 32.9529 17.6852 32.6852 17.5323 32.5705C17.3794 32.4558 17.1117 32.4941 16.997 32.647C16.5382 33.2588 16.4999 33.297 16.0793 33.8705C15.8117 34.3294 15.3529 34.4058 14.9705 34.2147C14.5499 33.9853 14.4352 33.4117 14.7029 33.0294C16.0029 31.2323 16.9205 29.9323 17.4941 29.1676C17.647 28.9764 17.7235 28.747 17.7617 28.5558C19.0235 21.0617 18.7176 21.6352 19.5588 18.4617C19.7117 17.7735 20.3235 17.3147 21.0499 17.3147H22.5794C22.9235 17.3147 23.2294 17.5058 23.3823 17.7735L25.3705 21.1764C25.4852 21.4058 25.7146 21.5588 25.9823 21.6352C27.4735 21.9411 29.0029 22.2852 29.4999 22.4L29.6146 23.2794C28.9646 23.2794 28.5823 23.1264 25.2558 22.4382C25.0646 22.4 24.9117 22.2852 24.8352 22.1323C24.4146 21.4058 23.7264 20.2205 23.6882 20.1823C23.5735 19.9911 23.3441 19.9147 23.1911 19.9911C23.0764 20.0294 22.9617 20.1441 22.9235 20.2588C22.9235 20.297 22.9617 19.8 21.9676 25.2294C21.8911 25.497 22.0058 25.7647 22.2352 25.9176C22.9617 26.4147 23.6882 26.9117 24.4911 27.3705C24.8735 27.6 25.1029 27.8676 25.2558 28.3647C25.7911 30.0852 26.3646 31.7294 26.9764 33.6029C27.2058 34.3676 26.747 34.8647 26.1735 34.8647C25.7911 34.8647 25.4852 34.6352 25.3705 34.2911C25.0646 33.4117 24.0705 30.3911 23.8029 29.5117C23.6882 29.1676 23.4588 28.8617 23.1529 28.6323C22.9999 28.5176 22.4264 28.1352 20.5529 26.8352C20.4764 26.797 20.3235 26.6823 20.0941 26.7588C19.9029 26.8352 19.8646 27.0647 19.8264 27.1411C19.7882 27.2558 19.597 28.6323 19.5588 28.8617C19.4823 29.2823 19.2911 29.6647 18.947 30.0852C18.7176 30.3529 18.4499 30.7352 18.1058 31.1941C17.9911 31.347 18.0293 31.6147 18.1823 31.7294C18.3352 31.8441 18.6029 31.8058 18.7176 31.6529C19.0617 31.1941 19.3293 30.8117 19.5588 30.5441C19.9794 30.0088 20.247 29.4735 20.3235 28.9382C20.3617 28.6705 20.4764 27.9058 20.5146 27.6382C21.2411 28.1352 21.9676 28.6323 22.6941 29.1676C22.847 29.2823 22.9999 29.4352 23.0382 29.6264C23.3058 30.5058 24.2999 33.5647 24.6058 34.4058C24.8352 35.0558 25.4088 35.4764 26.1352 35.4764H26.1735C27.2058 35.4764 28.0852 34.5205 27.7029 33.2205C27.1676 31.6147 26.5558 29.7411 25.9823 27.9823C25.7911 27.3323 25.447 26.8735 24.8735 26.5676C24.147 26.147 23.497 25.6882 22.7705 25.1911C22.9617 24.5411 22.9235 24.7705 23.5352 21.2911ZM17.7235 24.3117H16.2705C15.8117 24.3117 15.4676 23.9294 15.5058 23.4705L15.8882 20.0294C16.0029 18.997 17.0352 18.3088 18.0293 18.6147L18.6794 18.8058C17.8382 22.3235 17.8764 23.4323 17.7235 24.3117ZM28.3911 21.3294L28.1999 20.0676C28.1617 19.8 28.3529 19.5323 28.6205 19.4941C28.8882 19.4558 29.1558 19.647 29.1941 19.9147L29.4235 21.5205L28.3911 21.3294Z" fill="white"/>
<path d="M23.038 15.8998C24.4527 15.8998 25.5233 14.791 25.5233 13.4145C25.5233 12.038 24.4145 10.9292 23.038 10.9292C21.6616 10.9292 20.5527 12.0763 20.5527 13.4145C20.5527 14.791 21.6616 15.8998 23.038 15.8998ZM22.9998 11.6939C23.038 11.6939 23.038 11.6939 22.9998 11.6939C23.9557 11.6939 24.7204 12.4586 24.7204 13.4145C24.7204 14.3704 23.9557 15.1351 22.9998 15.1351C22.0439 15.1351 21.2792 14.3704 21.2792 13.4145C21.2792 12.4586 22.0821 11.6939 22.9998 11.6939Z" fill="white"/>
</g>
</g>
<defs>
<clipPath id="clip0_1102_1437">
<rect width="26" height="26" fill="white" transform="translate(10 10.2407)"/>
</clipPath>
<clipPath id="clip1_1102_1437">
<rect width="26" height="26" fill="white" transform="translate(10 10.2407)"/>
</clipPath>
</defs>
</svg>
